<svg width="20" height="21" viewBox="0 0 20 21" fill="none" xmlns="http://www.w3.org/2000/svg">
<path d="M8.76291 1.49867C9.15291 0.209266 10.8468 0.209266 11.2355 1.49867L12.6265 6.10747C12.7115 6.38815 12.8767 6.63272 13.0985 6.80621C13.3203 6.97971 13.5874 7.07325 13.8615 7.07347H18.3621C19.6218 7.07347 20.1444 8.80947 19.1265 9.60747L15.4865 12.4551C15.2642 12.6287 15.0988 12.8737 15.0137 13.1549C14.9287 13.436 14.9286 13.739 15.0133 14.0203L16.4043 18.6291C16.7943 19.9185 15.4228 20.9923 14.4023 20.1943L10.7623 17.3467C10.5403 17.1731 10.2729 17.0796 9.99856 17.0796C9.72418 17.0796 9.45684 17.1731 9.23481 17.3467L5.59481 20.1943C4.57561 20.9923 3.20541 19.9185 3.59411 18.6291L4.98511 14.0203C5.06984 13.739 5.06968 13.436 4.98468 13.1549C4.89967 12.8737 4.73417 12.6287 4.51191 12.4551L0.873209 9.60887C-0.14469 8.81087 0.37921 7.07487 1.63761 7.07487H6.13691C6.41127 7.07494 6.67862 6.98154 6.90069 6.80802C7.12276 6.63451 7.28816 6.38978 7.37321 6.10887L8.76421 1.50007L8.76291 1.49867Z" fill="#DAF91C"/>
</svg>
